<svg width="290" height="79" viewBox="0 0 290 79" fill="none" xmlns="http://www.w3.org/2000/svg">
<path d="M80.4606 22V78H77.1006L38.9406 29.36V78H34.8606V22H38.3006L76.3806 70.64V22H80.4606ZM114.737 78.4C110.63 78.4 106.71 77.7067 102.977 76.32C99.2968 74.88 96.4168 73.04 94.3368 70.8L96.1768 67.76C98.1502 69.84 100.79 71.5467 104.097 72.88C107.457 74.16 110.977 74.8 114.657 74.8C119.99 74.8 124.017 73.7867 126.737 71.76C129.457 69.7333 130.817 67.0933 130.817 63.84C130.817 61.3333 130.097 59.3333 128.657 57.84C127.217 56.3467 125.43 55.2 123.297 54.4C121.164 53.6 118.284 52.7733 114.657 51.92C110.55 50.9067 107.244 49.92 104.737 48.96C102.284 48 100.177 46.5333 98.4168 44.56C96.7102 42.5333 95.8568 39.84 95.8568 36.48C95.8568 33.76 96.5768 31.28 98.0168 29.04C99.4568 26.7467 101.644 24.9333 104.577 23.6C107.564 22.2667 111.27 21.6 115.697 21.6C118.79 21.6 121.83 22.0533 124.817 22.96C127.804 23.8667 130.39 25.0933 132.577 26.64L131.057 29.92C128.817 28.3733 126.337 27.2 123.617 26.4C120.95 25.6 118.31 25.2 115.697 25.2C110.524 25.2 106.604 26.24 103.937 28.32C101.27 30.4 99.9368 33.0933 99.9368 36.4C99.9368 38.9067 100.657 40.9067 102.097 42.4C103.537 43.8933 105.324 45.04 107.457 45.84C109.59 46.64 112.497 47.4933 116.177 48.4C120.284 49.4133 123.564 50.4 126.017 51.36C128.47 52.32 130.55 53.7867 132.257 55.76C134.017 57.68 134.897 60.2933 134.897 63.6C134.897 66.32 134.15 68.8 132.657 71.04C131.217 73.28 128.977 75.0667 125.937 76.4C122.897 77.7333 119.164 78.4 114.737 78.4ZM152.619 22H156.699V78H152.619V22ZM190.786 25.68H170.626V22H215.026V25.68H194.866V78H190.786V25.68ZM263.784 74.32V78H225.144V22H262.584V25.68H229.224V47.76H259.064V51.36H229.224V74.32H263.784Z" fill="black"/>
<line x1="11" y1="30" x2="11" y2="78" stroke="#FD8181" stroke-width="4"/>
<circle cx="10.5" cy="26.5" r="10.5" fill="white"/>
<circle cx="10.5" cy="26.5" r="10.5" fill="white"/>
<circle cx="10.5" cy="26.5" r="7.5" fill="#FD8181"/>
<circle cx="154.5" cy="26.5" r="10.5" fill="white"/>
<circle cx="154.5" cy="26.5" r="7.5" fill="#070707"/>
</svg>
